<svg id="visual" viewBox="0 0 900 600" width="900" height="600" xmlns="http://www.w3.org/2000/svg" xmlns:xlink="http://www.w3.org/1999/xlink" version="1.1"><rect x="0" y="0" width="900" height="600" fill="#001220"></rect><defs><linearGradient id="grad1_0" x1="33.3%" y1="0%" x2="100%" y2="100%"><stop offset="20%" stop-color="#1c2138" stop-opacity="1"></stop><stop offset="80%" stop-color="#1c2138" stop-opacity="1"></stop></linearGradient></defs><defs><linearGradient id="grad1_1" x1="33.3%" y1="0%" x2="100%" y2="100%"><stop offset="20%" stop-color="#1c2138" stop-opacity="1"></stop><stop offset="80%" stop-color="#121c30" stop-opacity="1"></stop></linearGradient></defs><defs><linearGradient id="grad1_2" x1="33.3%" y1="0%" x2="100%" y2="100%"><stop offset="20%" stop-color="#091828" stop-opacity="1"></stop><stop offset="80%" stop-color="#121c30" stop-opacity="1"></stop></linearGradient></defs><defs><linearGradient id="grad1_3" x1="33.3%" y1="0%" x2="100%" y2="100%"><stop offset="20%" stop-color="#091828" stop-opacity="1"></stop><stop offset="80%" stop-color="#001220" stop-opacity="1"></stop></linearGradient></defs><defs><linearGradient id="grad2_0" x1="0%" y1="0%" x2="66.7%" y2="100%"><stop offset="20%" stop-color="#1c2138" stop-opacity="1"></stop><stop offset="80%" stop-color="#1c2138" stop-opacity="1"></stop></linearGradient></defs><defs><linearGradient id="grad2_1" x1="0%" y1="0%" x2="66.7%" y2="100%"><stop offset="20%" stop-color="#121c30" stop-opacity="1"></stop><stop offset="80%" stop-color="#1c2138" stop-opacity="1"></stop></linearGradient></defs><defs><linearGradient id="grad2_2" x1="0%" y1="0%" x2="66.7%" y2="100%"><stop offset="20%" stop-color="#121c30" stop-opacity="1"></stop><stop offset="80%" stop-color="#091828" stop-opacity="1"></stop></linearGradient></defs><defs><linearGradient id="grad2_3" x1="0%" y1="0%" x2="66.7%" y2="100%"><stop offset="20%" stop-color="#001220" stop-opacity="1"></stop><stop offset="80%" stop-color="#091828" stop-opacity="1"></stop></linearGradient></defs><g transform="translate(900, 0)"><path d="M0 432.7C-62.4 431.1 -124.8 429.5 -164.6 397.3C-204.4 365.1 -221.6 302.2 -262.3 262.3C-303.1 222.4 -367.4 205.5 -399.7 165.6C-432 125.7 -432.4 62.8 -432.7 0L0 0Z" fill="#051524"></path><path d="M0 324.5C-46.8 323.3 -93.6 322.1 -123.4 298C-153.3 273.8 -166.2 226.7 -196.8 196.8C-227.3 166.8 -275.6 154.1 -299.8 124.2C-324 94.3 -324.3 47.1 -324.5 0L0 0Z" fill="#0d1a2c"></path><path d="M0 216.3C-31.2 215.5 -62.4 214.7 -82.3 198.6C-102.2 182.5 -110.8 151.1 -131.2 131.2C-151.6 111.2 -183.7 102.7 -199.9 82.8C-216 62.8 -216.2 31.4 -216.3 0L0 0Z" fill="#171f34"></path><path d="M0 108.2C-15.6 107.8 -31.2 107.4 -41.1 99.3C-51.1 91.3 -55.4 75.6 -65.6 65.6C-75.8 55.6 -91.9 51.4 -99.9 41.4C-108 31.4 -108.1 15.7 -108.2 0L0 0Z" fill="#1c2138"></path></g><g transform="translate(0, 600)"><path d="M0 -432.7C45.5 -402 91 -371.3 147.3 -355.7C203.7 -340.1 271 -339.6 305.9 -305.9C340.9 -272.3 343.6 -205.4 359.4 -148.9C375.1 -92.3 403.9 -46.2 432.7 0L0 0Z" fill="#051524"></path><path d="M0 -324.5C34.1 -301.5 68.2 -278.5 110.5 -266.8C152.8 -255.1 203.2 -254.7 229.5 -229.5C255.7 -204.2 257.7 -154 269.5 -111.6C281.3 -69.3 302.9 -34.6 324.5 0L0 0Z" fill="#0d1a2c"></path><path d="M0 -216.3C22.7 -201 45.5 -185.6 73.7 -177.8C101.9 -170.1 135.5 -169.8 153 -153C170.5 -136.1 171.8 -102.7 179.7 -74.4C187.6 -46.2 201.9 -23.1 216.3 0L0 0Z" fill="#171f34"></path><path d="M0 -108.2C11.4 -100.5 22.7 -92.8 36.8 -88.9C50.9 -85 67.7 -84.9 76.5 -76.5C85.2 -68.1 85.9 -51.3 89.8 -37.2C93.8 -23.1 101 -11.5 108.2 0L0 0Z" fill="#1c2138"></path></g></svg>