<svg width="191" height="95" viewBox="0 0 191 95" fill="none" xmlns="http://www.w3.org/2000/svg">
<path d="M26.2 12.04L25 12.44L20.24 5.36H9.2V18.04H15.48L18.4 12.92H19.64V23.88L18.04 24.68L15.6 19.84H9.16V31.68L15.36 33.4L14.56 35H0.4V33.76L4.16 30.8V6.56L0 5.16L0.8 3.56H24L26.2 2.84V12.04Z" fill="white"/>
<path d="M42.3366 35H31.1766V33.76L34.7366 30.96V19.28L31.1766 16.8V15.56L38.0166 13H39.5366V32L43.1366 33.4L42.3366 35ZM36.9766 1C37.7766 1 38.4299 1.29333 38.9366 1.88C39.4699 2.46667 39.7366 3.2 39.7366 4.08C39.7366 4.69333 39.5499 5.28 39.1766 5.84C38.8032 6.37333 38.3366 6.8 37.7766 7.12C37.2166 7.44 36.6699 7.6 36.1366 7.6C35.3366 7.6 34.6699 7.30667 34.1366 6.72C33.6299 6.13334 33.3766 5.4 33.3766 4.52C33.3766 3.90667 33.5632 3.33333 33.9366 2.8C34.3099 2.24 34.7766 1.8 35.3366 1.48C35.8966 1.16 36.4432 1 36.9766 1Z" fill="white"/>
<path d="M70.8834 35H63.2834V32.12L59.5634 35.08C58.7101 35.2933 57.6834 35.4 56.4834 35.4C54.7234 35.4 53.1368 34.9467 51.7234 34.04C50.3368 33.1067 49.2434 31.8533 48.4434 30.28C47.6701 28.7067 47.2834 26.9733 47.2834 25.08C47.2834 23.0267 47.9101 21.1067 49.1634 19.32C50.4168 17.5067 51.9768 16.0667 53.8434 15C55.7368 13.9067 57.5634 13.36 59.3234 13.36C60.7901 13.36 62.1234 13.7733 63.3234 14.6V6.36L59.7634 3.88V2.64L66.6034 0.0800018H68.1234V32L71.6834 33.4L70.8834 35ZM58.5234 32C59.3234 32 60.0834 31.8933 60.8034 31.68C61.5501 31.44 62.3768 31 63.2834 30.36V21.24C63.1234 19.9067 62.4968 18.8267 61.4034 18C60.3368 17.1467 58.8701 16.72 57.0034 16.72C53.9901 16.72 52.4834 18.8667 52.4834 23.16C52.4834 25.6667 53.0034 27.7733 54.0434 29.48C55.0834 31.16 56.5768 32 58.5234 32Z" fill="white"/>
<path d="M99.0866 35H91.4866V32.12L87.7666 35.08C86.9132 35.2933 85.8866 35.4 84.6866 35.4C82.9266 35.4 81.3399 34.9467 79.9266 34.04C78.5399 33.1067 77.4466 31.8533 76.6466 30.28C75.8732 28.7067 75.4866 26.9733 75.4866 25.08C75.4866 23.0267 76.1132 21.1067 77.3666 19.32C78.6199 17.5067 80.1799 16.0667 82.0466 15C83.9399 13.9067 85.7666 13.36 87.5266 13.36C88.9932 13.36 90.3266 13.7733 91.5266 14.6V6.36L87.9666 3.88V2.64L94.8066 0.0800018H96.3266V32L99.8866 33.4L99.0866 35ZM86.7266 32C87.5266 32 88.2866 31.8933 89.0066 31.68C89.7532 31.44 90.5799 31 91.4866 30.36V21.24C91.3266 19.9067 90.6999 18.8267 89.6066 18C88.5399 17.1467 87.0732 16.72 85.2066 16.72C82.1932 16.72 80.6866 18.8667 80.6866 23.16C80.6866 25.6667 81.2066 27.7733 82.2466 29.48C83.2866 31.16 84.7799 32 86.7266 32Z" fill="white"/>
<path d="M113.49 35H102.33V33.76L105.89 30.96V6.36L102.33 3.88V2.64L109.17 0.0800018H110.69V32L114.29 33.4L113.49 35Z" fill="white"/>
<path d="M131.535 35.08C130.469 35.2933 129.189 35.4 127.695 35.4C125.935 35.4 124.349 34.9467 122.935 34.04C121.549 33.1067 120.455 31.8533 119.655 30.28C118.882 28.7067 118.495 26.9733 118.495 25.08C118.495 23.0267 119.122 21.1067 120.375 19.32C121.629 17.5067 123.189 16.0667 125.055 15C126.949 13.9067 128.775 13.36 130.535 13.36C133.069 13.36 135.029 14.36 136.415 16.36C137.829 18.36 138.535 21 138.535 24.28H123.735C123.895 26.5467 124.509 28.4 125.575 29.84C126.669 31.28 128.149 32 130.015 32C131.749 32 134.215 30.6533 137.415 27.96L138.615 29.48L131.535 35.08ZM128.215 16.72C125.335 16.72 123.829 18.6933 123.695 22.64H133.055C132.815 21.2 132.562 20.1067 132.295 19.36C132.055 18.5867 131.615 17.96 130.975 17.48C130.362 16.9733 129.442 16.72 128.215 16.72Z" fill="white"/>
<path d="M92.944 66.448C94.768 66.448 97.36 65.136 100.72 62.512L102.16 64.336L94.768 70.144C93.488 70.4 91.952 70.528 90.16 70.528C88.336 70.528 86.688 70.144 85.216 69.376C83.776 68.608 82.64 67.584 81.808 66.304C80.976 64.992 80.56 63.552 80.56 61.984C80.56 60.928 80.736 59.872 81.088 58.816L66.832 70.096C65.392 70.352 63.584 70.48 61.408 70.48C59.104 70.48 57.04 69.904 55.216 68.752C53.392 67.568 51.968 65.952 50.944 63.904C49.92 61.856 49.408 59.6 49.408 57.136C49.408 54.48 50.208 52 51.808 49.696C53.408 47.392 55.408 45.552 57.808 44.176C60.24 42.8 62.576 42.112 64.816 42.112C66.352 42.112 67.728 42.672 68.944 43.792C70.16 44.912 70.96 46.128 71.344 47.44C72.72 45.872 74.272 44.592 76 43.6C77.76 42.608 79.424 42.112 80.992 42.112C82.24 42.112 83.344 42.272 84.304 42.592C85.264 42.912 86.384 43.408 87.664 44.08C89.04 44.752 90.208 45.264 91.168 45.616C92.128 45.936 93.264 46.096 94.576 46.096C95.344 46.096 96.128 45.92 96.928 45.568C97.76 45.184 98.448 44.672 98.992 44.032C99.568 43.392 99.856 42.672 99.856 41.872C99.856 40.688 99.248 39.552 98.032 38.464C96.816 37.376 95.12 36.4 92.944 35.536V34.048L98.512 31.984C99.504 32.976 100.528 34.368 101.584 36.16C102.672 37.952 103.216 39.488 103.216 40.768C103.216 42.336 102.576 43.968 101.296 45.664C100.016 47.328 98.496 48.736 96.736 49.888C95.008 51.008 93.584 51.568 92.464 51.568C91.536 51.568 90.672 51.52 89.872 51.424C88.784 52.192 87.984 53.232 87.472 54.544C86.992 55.824 86.752 57.52 86.752 59.632C86.752 61.616 87.28 63.248 88.336 64.528C89.392 65.776 90.912 66.4 92.896 66.4L92.944 66.448ZM64.192 66.448C65.376 66.448 66.672 66.16 68.08 65.584C69.488 64.976 71.232 63.84 73.312 62.176L87.616 50.944C86.592 50.656 85.168 50.112 83.344 49.312C82.064 48.768 81.008 48.368 80.176 48.112C79.344 47.824 78.448 47.68 77.488 47.68C76.432 47.68 75.424 47.872 74.464 48.256C73.504 48.608 72.464 49.28 71.344 50.272C71.024 51.648 70.304 52.96 69.184 54.208C68.096 55.424 66.816 56.544 65.344 57.568C63.904 58.592 61.904 59.904 59.344 61.504L58.336 59.584C60.928 57.984 62.688 56.448 63.616 54.976C64.544 53.472 65.008 51.904 65.008 50.272C65.008 49.152 64.656 48.192 63.952 47.392C63.248 46.592 62.448 46.192 61.552 46.192C59.632 46.192 58.16 46.928 57.136 48.4C56.144 49.872 55.648 52.032 55.648 54.88C55.648 58.176 56.384 60.928 57.856 63.136C59.328 65.344 61.44 66.448 64.192 66.448Z" fill="white"/>
<path d="M120.56 77.08C122.613 77.6667 124.227 78.6533 125.4 80.04C126.573 81.4267 127.16 83.0267 127.16 84.84C127.16 86.52 126.48 88.1067 125.12 89.6C123.787 91.0667 122.107 92.24 120.08 93.12C118.08 94 116.173 94.44 114.36 94.44C113.027 94.44 111.72 94.3733 110.44 94.24C108.307 94.1067 106.653 94.04 105.48 94.04H100.4V92.8L104.16 89.84V65.52L100 64.16L100.8 62.56H105.44C107.867 62.56 110.253 62.48 112.6 62.32C114.413 62.2133 115.747 62.16 116.6 62.16C118.387 62.16 119.96 62.5067 121.32 63.2C122.68 63.8933 123.72 64.84 124.44 66.04C125.187 67.2133 125.56 68.5333 125.56 70C125.56 71.3333 125.093 72.6133 124.16 73.84C123.253 75.04 122.053 76.0933 120.56 77V77.08ZM120.16 72C120.16 69.8933 119.6 68.1733 118.48 66.84C117.36 65.5067 115.693 64.84 113.48 64.84C111.88 64.84 110.44 65.2933 109.16 66.2V76.8H114.88C116.533 76.8 117.827 76.3867 118.76 75.56C119.693 74.7067 120.16 73.5067 120.16 71.96V72ZM115.48 91.52C117.4 91.52 118.92 91.04 120.04 90.08C121.187 89.12 121.76 87.8267 121.76 86.2C121.76 84.12 121.147 82.44 119.92 81.16C118.72 79.88 116.92 79.2 114.52 79.12C114.333 79.1467 114.08 79.16 113.76 79.16H109.16V90.48C110.947 91.2 113.053 91.56 115.48 91.56V91.52Z" fill="white"/>
<path d="M144.402 72.36C146.162 72.36 147.736 72.8267 149.122 73.76C150.536 74.6667 151.629 75.9067 152.402 77.48C153.202 79.0533 153.602 80.7867 153.602 82.68C153.602 84.7333 152.976 86.6667 151.723 88.48C150.469 90.2667 148.896 91.7067 147.003 92.8C145.136 93.8667 143.323 94.4 141.562 94.4C139.803 94.4 138.216 93.9467 136.803 93.04C135.416 92.1067 134.323 90.8533 133.523 89.28C132.749 87.7067 132.363 85.9733 132.363 84.08C132.363 82.0267 132.989 80.1067 134.242 78.32C135.496 76.5067 137.056 75.0667 138.923 74C140.816 72.9067 142.642 72.36 144.402 72.36ZM142.083 75.72C139.069 75.72 137.562 77.8667 137.562 82.16C137.562 84.6933 138.109 86.8133 139.202 88.52C140.296 90.2 141.856 91.04 143.883 91.04C146.896 91.04 148.402 88.88 148.402 84.56C148.402 82.0533 147.856 79.96 146.762 78.28C145.669 76.5733 144.109 75.72 142.083 75.72Z" fill="white"/>
<path d="M190.918 74L181.998 94H178.958L174.798 83.8L169.638 94H166.598L160.358 78.76L156.638 76.6V75.36L163.478 72L164.998 78.04L169.878 89.92L173.798 81.48L172.678 78.76L168.958 76.6V75.36L175.798 72L177.318 78.04L182.078 89.6L186.878 78.4L181.318 74.36L182.118 72.76H190.918V74Z" fill="white"/>
</svg>
